<svg viewBox="0 0 800 800" xmlns="http://www.w3.org/2000/svg"><path d="M197.02023505804047,233.31468689918225 L197.02023326841132,233.31205875823144 M52.916109390934594,542.4086213618152 L52.91610599386229,542.4059897844048 M197.02023505804047,233.31468689918225 L52.916109390934594,542.4086213618152 M197.02023326841132,233.31205875823144 L52.91610599386229,542.4059897844048 M73.21637650276637,588.3688949313223 L73.21637333024853,588.3662628444644 M52.916109390934594,542.4086213618152 L49.88216119968956,552.1901525170223 M49.88216119968956,552.1901525170223 L50.50427079024439,562.1196298164717 M50.50427079024439,562.1196298164717 L54.755076843633105,571.7455691868486 M54.755076843633105,571.7455691868486 L62.442080753332675,580.6301120008611 M62.442080753332675,580.6301120008611 L73.21637650276637,588.3688949313223 M52.91610599386229,542.4059897844048 L49.88215776858965,552.1875208311551 M49.88215776858965,552.1875208311551 L50.50426736577742,562.1169980205257 M50.50426736577742,562.1169980205257 L54.75507346617826,571.7429372842063 M54.75507346617826,571.7429372842063 L62.44207746114898,580.627479999756 M62.44207746114898,580.627479999756 L73.21637333024853,588.3662628444644 M152.72169935920425,600.175236558934 L152.72169707107957,600.1726043412724 M73.21637650276637,588.3688949313223 L86.58829115880837,594.6095884137428 M86.58829115880837,594.6095884137428 L101.94972273852017,599.067941666462 M101.94972273852017,599.067941666462 L118.601708380236,601.5408613443238 M118.601708380236,601.5408613443238 L135.78643632952117,601.9156483502661 M135.78643632952117,601.9156483502661 L152.72169935920425,600.175236558934 M73.21637333024853,588.3662628444644 L86.5882881349147,594.6069562577404 M86.5882881349147,594.6069562577404 L101.94971988544819,599.0653094610672 M101.94971988544819,599.0653094610672 L118.60170571240457,601.5382291115341 M118.60170571240457,601.5382291115341 L135.78643385291008,601.9130161133245 M135.78643385291008,601.9130161133245 L152.72169707107957,600.1726043412724 M688.9804512843048,517.1143926703212 L688.9804549609141,517.1117613734542 M152.72169935920425,600.175236558934 L688.9804512843048,517.1143926703212 M152.72169707107957,600.1726043412724 L688.9804549609141,517.1117613734542 M747.4981745033253,483.95096942433264 L747.4981788294331,483.9483384954701 M688.9804512843048,517.1143926703212 L705.1277126492137,513.7313215898744 M705.1277126492137,513.7313215898744 L719.6597367314264,508.44635910775685 M719.6597367314264,508.44635910775685 L731.9154113330897,501.5002556416715 M731.9154113330897,501.5002556416715 L741.3375550216756,493.20931637912383 M741.3375550216756,493.20931637912383 L747.4981745033253,483.95096942433264 M688.9804549609141,517.1117613734542 L705.1277165052684,513.7286903305388 M705.1277165052684,513.7286903305388 L719.6597407488914,508.4437279070565 M719.6597407488914,508.4437279070565 L731.9154154865828,501.4976245180442 M731.9154154865828,501.4976245180442 L741.3375592796299,493.2066853475034 M741.3375592796299,493.2066853475034 L747.4981788294331,483.9483384954701 M725.2964614922612,438.32829049653134 L725.2964655699859,438.32566007426715 M747.4981745033253,483.95096942433264 L750.1178378765414,474.1464853989044 M750.1178378765414,474.1464853989044 L749.0782743572013,464.2417447998463 M749.0782743572013,464.2417447998463 L744.4276996311085,454.6870284334296 M744.4276996311085,454.6870284334296 L736.378264336776,445.9164339894058 M736.378264336776,445.9164339894058 L725.2964614922612,438.32829049653134 M747.4981788294331,483.9483384954701 L750.1178422314103,474.1438545788788 M750.1178422314103,474.1438545788788 L749.0782787001515,464.2391140897888 M749.0782787001515,464.2391140897888 L744.4277039220217,454.68439782947155 M744.4277039220217,454.68439782947155 L736.3782685379165,445.9138034828551 M736.3782685379165,445.9138034828551 L725.2964655699859,438.32566007426715 M333.1425441685754,212.29481567988867 L333.1425438890326,212.29218777328506 M725.2964614922612,438.32829049653134 L333.1425441685754,212.29481567988867 M725.2964655699859,438.32566007426715 L333.1425438890326,212.29218777328506 M254.32389528738503,199.6115823769533 L254.32389413376785,199.60895461179308 M333.1425441685754,212.29481567988867 L320.0291092093967,205.9346395455429 M320.0291092093967,205.9346395455429 L304.8748381330432,201.32188084552362 M304.8748381330432,201.32188084552362 L288.3682209447058,198.6658422351434 M288.3682209447058,198.6658422351434 L271.2588986974773,198.0869793978896 M271.2588986974773,198.0869793978896 L254.32389528738503,199.6115823769533 M333.1425438890326,212.29218777328506 L320.0291087844323,205.93201170986413 M320.0291087844323,205.93201170986413 L304.8748375400311,201.31925306128835 M304.8748375400311,201.31925306128835 L288.3682201686488,198.66321448053128 M288.3682201686488,198.66321448053128 L271.25889773168296,198.08435164973383 M271.25889773168296,198.08435164973383 L254.32389413376785,199.60895461179308 M254.32389528738503,199.6115823769533 L238.33223859244208,203.1704772867055 M238.33223859244208,203.1704772867055 L224.01030702280576,208.6022018820059 M224.01030702280576,208.6022018820059 L212.00889532328978,215.66029309876836 M212.00889532328978,215.66029309876836 L202.87363040246692,224.02439518962439 M202.87363040246692,224.02439518962439 L197.02023505804047,233.31468689918225 M254.32389413376785,199.60895461179308 L238.3322372614362,203.16784948185347 M238.3322372614362,203.16784948185347 L224.01030553289536,208.59957401657914 M224.01030553289536,208.59957401657914 L212.0088937001759,215.65766515463798 M212.0088937001759,215.65766515463798 L202.8736286779064,224.02176715223936 M202.8736286779064,224.02176715223936 L197.02023326841132,233.31205875823144" stroke="black"  stroke-width="4"  fill="red"/></svg>