<svg viewBox="0 0 800 800" xmlns="http://www.w3.org/2000/svg"><path d="M326.74235499361134,368.3857815429481 L326.7423536681087,368.3844872334571 M280.1567044846886,425.4727282940984 L280.15670211054385,425.4714251018773 M326.74235499361134,368.3857815429481 L280.1567044846886,425.4727282940984 M326.7423536681087,368.3844872334571 L280.15670211054385,425.4714251018773 M288.75685232412667,436.88614624504294 L288.7568501382543,436.88484127926995 M280.1567044846886,425.4727282940984 L278.8309612602835,427.8995665087895 M278.8309612602835,427.8995665087895 L279.07271118928173,430.3643440460315 M279.07271118928173,430.3643440460315 L280.8725219450424,432.754961891205 M280.8725219450424,432.754961891205 L284.1499194836376,434.9624904863907 M284.1499194836376,434.9624904863907 L288.75685232412667,436.88614624504294 M280.15670211054385,425.4714251018773 L278.83095885579684,427.8982629393913 M278.83095885579684,427.8982629393913 L279.0727087893785,430.3630400935962 M279.0727087893785,430.3630400935962 L280.872519584509,432.75365756729286 M280.872519584509,432.75365756729286 L284.1499171955314,434.9611858194827 M284.1499171955314,434.9611858194827 L288.7568501382543,436.88484127926995 M322.8724822807229,439.8223471959089 L322.87248085579074,439.8210417740023 M288.75685232412667,436.88614624504294 L294.4841993323746,438.43796800548654 M294.4841993323746,438.43796800548654 L301.07126287231534,439.5468914532421 M301.07126287231534,439.5468914532421 L308.21763005498684,440.16208762218696 M308.21763005498684,440.16208762218696 L315.59705633229765,440.25533133926 M315.59705633229765,440.25533133926 L322.8724822807229,439.8223471959089 M288.7568501382543,436.88484127926995 L294.48419727391007,438.43666279863425 M294.48419727391007,438.43666279863425 L301.071260960626,439.54558607412474 M301.071260960626,439.54558607412474 L308.21762830272564,440.16078214750576 M308.21762830272564,440.16078214750576 L315.59705474480916,440.25402585009454 M315.59705474480916,440.25402585009454 L322.87248085579074,439.8210417740023 M495.0857762780804,424.37807104797065 L495.08577869364353,424.376768025892 M322.8724822807229,439.8223471959089 L495.0857762780804,424.37807104797065 M322.87248085579074,439.8210417740023 L495.08577869364353,424.376768025892 M520.0772801493993,416.15800053931554 L520.0772831185259,416.15669879511387 M495.0857762780804,424.37807104797065 L502.0013449418743,423.5388890913676 M502.0013449418743,423.5388890913676 L508.217836555497,422.22822716499843 M508.217836555497,422.22822716499843 L513.4519539589998,420.5061380215087 M513.4519539589998,420.5061380215087 L517.4657231715805,418.451434642968 M517.4657231715805,418.451434642968 L520.0772801493993,416.15800053931554 M495.08577869364353,424.376768025892 L502.00134751124597,423.5375861997277 M502.00134751124597,423.5375861997277 L508.2178392628932,422.22692447709085 M508.2178392628932,422.22692447709085 L513.4519567823323,420.5048356013024 M513.4519567823323,420.5048356013024 L517.4657260834897,418.450132542192 M517.4657260834897,418.450132542192 L520.0772831185259,416.15669879511387 M510.434011113774,404.8722815990461 L510.4340138640122,404.8709816099706 M520.0772801493993,416.15800053931554 L521.1690381517678,413.7304511666508 M521.1690381517678,413.7304511666508 L520.6928483534729,411.2793090539251 M520.6928483534729,411.2793090539251 L518.6718957702436,408.9159514636821 M518.6718957702436,408.9159514636821 L515.1993720897595,406.7475569345894 M515.1993720897595,406.7475569345894 L510.434011113774,404.8722815990461 M520.0772831185259,416.15669879511387 L521.1690411442031,413.72914979991015 M521.1690411442031,413.72914979991015 L520.6928513343141,411.2780080683501 M520.6928513343141,411.2780080683501 L518.6718987051837,408.91465084565635 M518.6718987051837,408.91465084565635 L515.1993749466361,406.7462566538222 M515.1993749466361,406.7462566538222 L510.4340138640122,404.8709816099706 M384.80918380249113,363.22867224873943 L384.80918376106376,363.2273787426702 M510.434011113774,404.8722815990461 L384.80918380249113,363.22867224873943 M510.4340138640122,404.8709816099706 L384.80918376106376,363.2273787426702 M351.21477605054383,360.11955891358923 L351.21477526709685,360.1182658919644 M384.80918380249113,363.22867224873943 L379.2189121012036,361.6693177588227 M379.2189121012036,361.6693177588227 L372.76011402643144,360.53870080639615 M372.76011402643144,360.53870080639615 L365.7255685053498,359.88780567366643 M365.7255685053498,359.88780567366643 L358.4337886089433,359.74596162414906 M358.4337886089433,359.74596162414906 L351.21477605054383,360.11955891358923 M384.80918376106376,363.2273787426702 L379.21891193628016,361.66802449571594 M379.21891193628016,361.66802449571594 L372.7601137188627,360.5374077194596 M372.7601137188627,360.5374077194596 L365.72556804243374,359.8865126881545 M365.72556804243374,359.8865126881545 L358.4337879849828,359.74466866074005 M358.4337879849828,359.74466866074005 L351.21477526709685,360.1182658919644 M351.21477605054383,360.11955891358923 L344.39528524187267,360.9917696540675 M344.39528524187267,360.9917696540675 L338.2842285236595,362.32327640778436 M338.2842285236595,362.32327640778436 L333.1588151373007,364.0540065521356 M333.1588151373007,364.0540065521356 L329.25210212101405,366.1057841152829 M329.25210212101405,366.1057841152829 L326.74235499361134,368.3857815429481 M351.21477526709685,360.1182658919644 L344.3952843076838,360.99047649653386 M344.3952843076838,360.99047649653386 L338.28422745427685,362.3219830427827 M338.28422745427685,362.3219830427827 L333.1588139543914,364.0527129174775 M333.1588139543914,364.0527129174775 L329.25210085140804,366.10449016097084 M329.25210085140804,366.10449016097084 L326.7423536681087,368.3844872334571" stroke="black"  stroke-width="4"  fill="red"/></svg>